<svg width="64" height="64" viewBox="0 0 64 64" fill="none" xmlns="http://www.w3.org/2000/svg">
<path d="M24.5943 0H39.4057V4.93714H24.5943V0ZM49.1886 9.87429H39.4057V4.93714H49.1886V9.87429ZM24.5943 9.87429H14.8114V4.93714H24.5943V9.87429ZM54.1257 14.8114H49.1886V9.87429H54.1257V14.8114ZM14.8114 14.8114H9.87428V9.87429H14.8114V14.8114ZM44.3429 19.6571H39.4057V14.8114H44.3429V19.6571ZM24.5943 19.6571H19.6571V14.8114H24.5943V19.6571ZM59.0628 24.5943H54.1257V14.8114H59.0628V24.5943ZM9.87428 24.5943H4.93714V14.8114H9.87428V24.5943ZM29.5314 24.5943H24.5943V19.6571H29.5314V24.5943ZM19.6571 24.5943H14.8114V19.6571H19.6571V24.5943ZM39.4057 24.5943H34.4686V19.6571H39.4057V24.5943ZM49.1886 24.5943H44.3429V19.6571H49.1886V24.5943ZM0 24.5943H4.93714V39.4057H0V24.5943ZM59.0628 24.5943H64V39.4057H59.0628V24.5943ZM9.87428 49.1886H4.93714V39.4057H9.87428V49.1886ZM49.1886 44.3429H44.3429V39.4057H49.1886V44.3429ZM59.0628 49.1886H54.1257V39.4057H59.0628V49.1886ZM19.6571 44.3429H14.8114V39.4057H19.6571V44.3429ZM44.3429 49.1886H19.6571V44.3429H44.3429V49.1886ZM14.8114 54.1257H9.87428V49.1886H14.8114V54.1257ZM54.1257 54.1257H49.1886V49.1886H54.1257V54.1257ZM49.1886 59.0629H39.4057V54.1257H49.1886V59.0629ZM24.5943 59.0629H14.8114V54.1257H24.5943V59.0629ZM24.5943 59.0629H39.4057V64H24.5943V59.0629Z" fill="#EF7777"/>
</svg>
